<svg width="22" height="19" viewBox="0 0 22 19" fill="none" xmlns="http://www.w3.org/2000/svg">
<path d="M2.07652e-07 8.03097C2.07652e-07 8.39058 0.338394 8.68213 0.755817 8.68213C1.17324 8.68213 1.51163 8.39058 1.51163 8.03097H2.07652e-07ZM1.83765 12.4818C1.67791 12.1495 1.23578 11.9918 0.850133 12.1294C0.464485 12.267 0.281345 12.6479 0.441085 12.9801L1.83765 12.4818ZM12.5789 17.8155L13.1252 17.0204L11.8243 16.357L11.278 17.1521L12.5789 17.8155ZM8.54153 17.0204L9.08784 17.8155L10.3887 17.1521L9.84235 16.357L8.54153 17.0204ZM11.278 17.1521C11.0838 17.4348 10.5829 17.4348 10.3887 17.1521L9.08784 17.8155C9.86744 18.9502 11.7993 18.9502 12.5789 17.8155L11.278 17.1521ZM9.32174 1.30232H12.345V1.78899e-07H9.32174V1.30232ZM20.1551 8.03097V8.89918H21.6667V8.03097H20.1551ZM6.60332 14.7523C5.33814 14.7335 4.67521 14.6642 4.15557 14.4787L3.5771 15.6819C4.38831 15.9714 5.31226 16.0356 6.57728 16.0544L6.60332 14.7523ZM0.441085 12.9801C1.0292 14.2034 2.15726 15.1752 3.5771 15.6819L4.15557 14.4787C3.10612 14.1042 2.27235 13.3859 1.83765 12.4818L0.441085 12.9801ZM20.1551 8.89918C20.1551 9.91942 20.1547 10.652 20.109 11.2301C20.0636 11.8023 19.9763 12.1755 19.8291 12.4818L21.2257 12.9801C21.462 12.4887 21.5665 11.9573 21.6171 11.3187C21.6672 10.686 21.6667 9.90162 21.6667 8.89918H20.1551ZM15.0894 16.0544C16.3545 16.0356 17.2785 15.9714 18.0896 15.6819L17.5112 14.4787C16.9916 14.6642 16.3286 14.7335 15.0634 14.7523L15.0894 16.0544ZM19.8291 12.4818C19.3944 13.3859 18.5606 14.1042 17.5112 14.4787L18.0896 15.6819C19.5094 15.1752 20.6375 14.2034 21.2257 12.9801L19.8291 12.4818ZM12.345 1.30232C14.009 1.30232 15.204 1.30301 16.1361 1.37936C17.057 1.45479 17.6429 1.59945 18.11 1.84606L18.8999 0.735654C18.1552 0.342571 17.3106 0.167383 16.2792 0.0828884C15.2589 -0.000685746 13.9798 1.78899e-07 12.345 1.78899e-07V1.30232ZM21.6667 8.03097C21.6667 6.62256 21.6676 5.52053 21.5705 4.64156C21.4725 3.7529 21.2691 3.02524 20.8129 2.38379L19.524 3.06425C19.8103 3.4667 19.9782 3.9715 20.0657 4.76483C20.1543 5.56785 20.1551 6.59734 20.1551 8.03097H21.6667ZM18.11 1.84606C18.6863 2.15032 19.1708 2.56776 19.524 3.06425L20.8129 2.38379C20.3351 1.71206 19.6796 1.14729 18.8999 0.735654L18.11 1.84606ZM9.32174 1.78899e-07C7.68697 1.78899e-07 6.40781 -0.000685746 5.38757 0.0828884C4.35608 0.167383 3.51147 0.342571 2.76692 0.735654L3.55675 1.84606C4.02388 1.59945 4.60982 1.45479 5.53065 1.37936C6.46274 1.30301 7.65769 1.30232 9.32174 1.30232V1.78899e-07ZM1.51163 8.03097C1.51163 6.59734 1.51243 5.56785 1.60105 4.76483C1.68861 3.9715 1.85652 3.4667 2.14277 3.06425L0.853892 2.38379C0.39763 3.02524 0.194285 3.7529 0.0962106 4.64156C-0.000795962 5.52053 2.07652e-07 6.62256 2.07652e-07 8.03097H1.51163ZM2.76692 0.735654C1.98723 1.14729 1.33169 1.71206 0.853892 2.38379L2.14277 3.06425C2.49593 2.56776 2.98046 2.15032 3.55675 1.84606L2.76692 0.735654ZM9.84235 16.357C9.63777 16.0592 9.45819 15.7963 9.28355 15.5899C9.09953 15.3725 8.88861 15.1767 8.59602 15.0301L7.83603 16.1559C7.8838 16.1798 7.9489 16.2234 8.0619 16.357C8.18421 16.5016 8.3224 16.7014 8.54153 17.0204L9.84235 16.357ZM6.57728 16.0544C7.01977 16.061 7.30005 16.0658 7.51371 16.0862C7.71335 16.1053 7.79074 16.1331 7.83603 16.1559L8.59602 15.0301C8.30098 14.8822 7.99398 14.8217 7.68008 14.7917C7.38019 14.7632 7.01776 14.7585 6.60332 14.7523L6.57728 16.0544ZM13.1252 17.0204C13.3443 16.7014 13.4825 16.5016 13.6048 16.357C13.7178 16.2234 13.7829 16.1798 13.8306 16.1559L13.0707 15.0301C12.7781 15.1767 12.5671 15.3725 12.3832 15.5899C12.2086 15.7963 12.029 16.0592 11.8243 16.357L13.1252 17.0204ZM15.0634 14.7523C14.6489 14.7585 14.2865 14.7632 13.9866 14.7917C13.6727 14.8217 13.3658 14.8822 13.0707 15.0301L13.8306 16.1559C13.876 16.1331 13.9534 16.1053 14.153 16.0862C14.3667 16.0658 14.6469 16.061 15.0894 16.0544L15.0634 14.7523Z" fill="#6F7172"/>
<path d="M6.80225 8.46509H6.81132M10.8242 8.46509H10.8333M14.8552 8.46509H14.8643" stroke="#6F7172" stroke-width="2" stroke-linecap="round" stroke-linejoin="round"/>
</svg>
