<svg width="12" height="19" viewBox="0 0 12 19" fill="none" xmlns="http://www.w3.org/2000/svg">
<path fill-rule="evenodd" clip-rule="evenodd" d="M4.6875 1.46154C2.96439 1.46154 1.5 2.90909 1.5 4.77811V12.8727C1.5 15.4869 3.55201 17.5385 6 17.5385C8.448 17.5385 10.5 15.4869 10.5 12.8727V4.77811H12V12.8727C12 16.2195 9.351 19 6 19C2.649 19 0 16.2195 0 12.8727V4.77811C0 2.17655 2.06137 0 4.6875 0C7.3136 0 9.375 2.17655 9.375 4.77811V12.8727C9.375 14.7293 7.9013 16.3018 6 16.3018C4.0987 16.3018 2.625 14.7293 2.625 12.8727V4.77811H4.125V12.8727C4.125 13.9967 5.0018 14.8403 6 14.8403C6.9982 14.8403 7.875 13.9967 7.875 12.8727V4.77811C7.875 2.90909 6.4106 1.46154 4.6875 1.46154Z" fill="#B5B5B5"/>
</svg>
