<svg width="343" height="85" viewBox="0 0 343 85" fill="none" xmlns="http://www.w3.org/2000/svg">
<path d="M2.3999 20.544L7.3439 15.6H26.3039L29.6639 18.96V15.12H31.8239V28.08H29.6639V21.936L25.2479 17.52H13.4399V52.08H26.3519L30.6719 47.76L32.1599 49.248L27.4079 54H7.3439L2.3999 49.056V20.544ZM64.4988 30.144V49.056L59.5548 54H41.8908L36.9468 49.056V30.144L41.8908 25.2H59.5548L64.4988 30.144ZM48.4668 27.12V52.08H52.9788V27.12H48.4668ZM102.939 52.08V54H92.5225L89.1625 50.592L85.7545 54H73.7545L69.2905 49.536V29.664L73.7545 25.2H85.4665L88.0585 27.792V13.68H84.2185V11.76H94.6345L99.0985 16.224V52.08H102.939ZM88.0585 48.72V30.768L84.4105 27.12H80.5705V52.08H84.6985L88.0585 48.72ZM110.27 54L105.806 49.536V29.664L110.27 25.2H128.702L133.166 29.664V37.536L128.702 42H116.846V52.08H127.886L131.918 48.048L133.406 49.536L128.942 54H110.27ZM116.846 27.12V40.08H122.126V27.12H116.846Z" fill="white"/>
<path d="M191.416 17.52H188.248L178.456 54H166.984L162.424 37.104L157.912 54H146.44L136.648 17.52H133.48V15.6H172.216V17.52H168.664L177.304 49.728L185.944 17.52H180.712V15.6H191.416V17.52ZM161.32 32.88L157.192 17.52H148.12L156.76 49.728L161.32 32.88ZM201.571 21.36L194.275 14.016L201.619 6.71997L208.915 14.064L201.571 21.36ZM211.555 52.08V54H201.139L196.675 49.536V27.12H192.835V25.2H203.251L207.715 29.664V52.08H211.555ZM215.524 54L214.036 52.224L228.964 27.12H217.54V33.84H215.38V25.2H240.148L241.684 27.024L226.804 52.08H238.996V45.36H241.156V54H215.524ZM250.067 54L246.083 50.016V42.624L250.067 38.64H262.403V27.12H257.363V34.8H247.283V29.184L251.267 25.2H269.459L273.443 29.184V52.08H277.283V54H266.387L263.507 51.072L260.579 54H250.067ZM257.363 40.56V52.08H259.523L262.403 49.2V40.56H257.363ZM306.106 28.704L304.618 30.192L301.546 27.12H297.466L294.106 30.48V52.08H297.946V54H287.53L283.066 49.536V27.12H279.226V25.2H289.642L293.05 28.56L296.41 25.2H302.602L306.106 28.704ZM342.157 52.08V54H331.741L328.381 50.592L324.973 54H312.973L308.509 49.536V29.664L312.973 25.2H324.685L327.277 27.792V13.68H323.437V11.76H333.853L338.317 16.224V52.08H342.157ZM327.277 48.72V30.768L323.629 27.12H319.789V52.08H323.917L327.277 48.72Z" fill="url(#paint0_linear_4_31)"/>
<defs>
<linearGradient id="paint0_linear_4_31" x1="238" y1="-2.90977e-05" x2="238" y2="85" gradientUnits="userSpaceOnUse">
<stop stop-color="#94D82D"/>
<stop offset="1" stop-color="#205442"/>
</linearGradient>
</defs>
</svg>
