<svg width="257" height="107" viewBox="0 0 257 107" fill="none" xmlns="http://www.w3.org/2000/svg">
<path d="M0 61.8724L3.7044 57.6264H17.9106L20.4281 60.512V57.2141H22.0466V68.3445H20.4281V63.0679L17.1193 59.2753H8.27195V88.9563H17.9465L21.1834 85.2461L22.2983 86.5241L18.7378 90.6052H3.7044L0 86.3592V61.8724ZM46.5289 70.1171V86.3592L42.8245 90.6052H29.5894L25.885 86.3592V70.1171L29.5894 65.8711H42.8245L46.5289 70.1171ZM34.5166 67.52V88.9563H37.8973V67.52H34.5166ZM75.331 88.9563V90.6052H67.5263L65.0087 87.6783L62.4552 90.6052H53.4639L50.1192 86.7714V69.7049L53.4639 65.8711H62.2394L64.1815 68.0971V55.9774H61.3043V54.3285H69.1087L72.4535 58.1623V88.9563H75.331ZM64.1815 86.0706V70.653L61.4482 67.52H58.571V88.9563H61.664L64.1815 86.0706ZM80.8239 90.6052L77.4791 86.7714V69.7049L80.8239 65.8711H94.6344L97.9792 69.7049V76.4655L94.6344 80.2993H85.7511V88.9563H94.023L97.0441 85.4935L98.159 86.7714L94.8143 90.6052H80.8239ZM85.7511 67.52V78.6504H89.7072V67.52H85.7511Z" fill="white"/>
<path d="M141.624 59.2753H139.25L131.914 90.6052H123.318L119.901 76.0945L116.521 90.6052H107.925L100.588 59.2753H98.2144V57.6264H127.238V59.2753H124.577L131.05 86.9363L137.524 59.2753H133.604V57.6264H141.624V59.2753ZM119.074 72.4668L115.981 59.2753H109.184L115.657 86.9363L119.074 72.4668ZM149.233 62.5732L143.766 56.266L149.269 50L154.736 56.3072L149.233 62.5732ZM156.714 88.9562V90.6052H148.909L145.565 86.7714V67.52H142.687V65.8711H150.492L153.837 69.7048V88.9562H156.714ZM159.688 90.6052L158.573 89.0799L169.758 67.52H161.198V73.2913H159.58V65.8711H178.138L179.288 67.4376L168.139 88.9562H177.274V83.1849H178.893V90.6052H159.688ZM185.57 90.6052L182.585 87.1836V80.8352L185.57 77.4136H194.813V67.52H191.036V74.1158H183.484V69.2926L186.469 65.8711H200.1L203.085 69.2926V88.9562H205.962V90.6052H197.798L195.64 88.0905L193.446 90.6052H185.57ZM191.036 79.0626V88.9562H192.655L194.813 86.4828V79.0626H191.036ZM227.558 68.8804L226.443 70.1583L224.141 67.52H221.084L218.567 70.4056V88.9562H221.444V90.6052H213.64L210.295 86.7714V67.52H207.418V65.8711H215.222L217.776 68.7567L220.293 65.8711H224.933L227.558 68.8804ZM254.57 88.9562V90.6052H246.766L244.248 87.6783L241.695 90.6052H232.703L229.359 86.7714V69.7048L232.703 65.8711H241.479L243.421 68.0971V55.9774H240.544V54.3285H248.348L251.693 58.1623V88.9562H254.57ZM243.421 86.0706V70.653L240.688 67.52H237.81V88.9562H240.903L243.421 86.0706Z" fill="url(#paint0_linear_0_1)"/>
<path d="M119.667 45.6667C134.394 45.6667 146.333 43.2788 146.333 40.3333C146.333 38.4148 141.935 36.7329 134.333 35.7932L123.667 8.33333L107.667 3L111.667 11L105 35.7932C97.3984 36.7329 93 38.4148 93 40.3333C93 43.2788 104.939 45.6667 119.667 45.6667Z" stroke="#629F36" stroke-width="5.33333" stroke-linecap="round" stroke-linejoin="round"/>
<defs>
<linearGradient id="paint0_linear_0_1" x1="176.528" y1="44.2287" x2="176.528" y2="117.229" gradientUnits="userSpaceOnUse">
<stop stop-color="#94D82D"/>
<stop offset="1" stop-color="#205442"/>
</linearGradient>
</defs>
</svg>
